<svg xmlns="http://www.w3.org/2000/svg" viewBox="0 0 942.53 152.47"><defs><style>.cls-1{fill:#ff5e6b;}.cls-2{fill:#e63e4c;}.cls-3{fill:#3b484a;}</style></defs><title>Asset 1</title><g id="Layer_2" data-name="Layer 2"><g id="Layer_1-2" data-name="Layer 1"><path class="cls-1" d="M34.85,51.95a3.26,3.26,0,0,1-3.26-3.23A33.51,33.51,0,0,0,27.8,35.41C22.9,25.79,14.27,18.69,2.15,14.32A3.26,3.26,0,1,1,4.36,8.19C21.64,14.43,29.89,25,33.77,32.78a39.28,39.28,0,0,1,4.34,15.9,3.26,3.26,0,0,1-3.24,3.27Z"/><path class="cls-1" d="M77.42,51.62a3.16,3.16,0,0,1-.95-.14,3.26,3.26,0,0,1-2.17-4.05,33.52,33.52,0,0,0,.31-13.83c-1.84-10.64-8-20-18.27-27.73A3.26,3.26,0,0,1,60.27.66C74.92,11.72,79.68,24.27,81.09,32.85a39.26,39.26,0,0,1-.56,16.47,3.26,3.26,0,0,1-3.11,2.31Z"/><path class="cls-2" d="M174.62,152.47a3.26,3.26,0,0,1-3.21-2.73,45.56,45.56,0,0,1,6.84-32.93,3.26,3.26,0,0,1,5.23,3.89,39.68,39.68,0,0,0-5.64,28,3.26,3.26,0,0,1-2.69,3.74A2.92,2.92,0,0,1,174.62,152.47Z"/><path class="cls-1" d="M105.74,152.47a3.26,3.26,0,0,1-3.21-2.73,45.56,45.56,0,0,1,6.84-32.93,3.26,3.26,0,0,1,5.23,3.89,39.71,39.71,0,0,0-5.64,28,3.25,3.25,0,0,1-2.69,3.74A2.92,2.92,0,0,1,105.74,152.47Z"/><ellipse class="cls-1" cx="180.24" cy="95.76" rx="36.01" ry="33.77"/><ellipse class="cls-2" cx="130.32" cy="95.76" rx="36.01" ry="33.77"/><path class="cls-2" d="M74.61,33.59a33.52,33.52,0,0,1-.31,13.83,3.26,3.26,0,0,0,2.17,4.05,3.18,3.18,0,0,0,.95.14,3.26,3.26,0,0,0,3.11-2.31,39.17,39.17,0,0,0,.56-16.47c-.05-.32-.11-.65-.17-1a66,66,0,0,0-7.33-2.64,39,39,0,0,1,1,4.35Z"/><path class="cls-2" d="M27.8,35.41a33.51,33.51,0,0,1,3.79,13.31,3.26,3.26,0,0,0,3.26,3.23h0a3.26,3.26,0,0,0,3.24-3.27,39.28,39.28,0,0,0-4.34-15.9c-.43-.85-.91-1.74-1.44-2.65q-3.15,1.08-6.13,2.45c.57.92,1.11,1.86,1.61,2.83Z"/><ellipse class="cls-1" cx="54.34" cy="87.94" rx="53.97" ry="50.62"/><path class="cls-2" d="M58.69,129.87c-29.81,0-54-22.66-54-50.62a47.7,47.7,0,0,1,3.13-17A48,48,0,0,0,.38,87.94c0,28,24.16,50.62,54,50.62,23.44,0,43.38-14,50.83-33.59-9.39,14.9-26.69,24.91-46.49,24.91Z"/><path class="cls-3" d="M16.49,91.33a3.26,3.26,0,0,1-3.26-3.26V83.66a3.26,3.26,0,0,1,6.52,0v4.41A3.26,3.26,0,0,1,16.49,91.33Z"/><path class="cls-3" d="M65.25,91.33A3.26,3.26,0,0,1,62,88.07V83.66a3.26,3.26,0,0,1,6.52,0v4.41A3.26,3.26,0,0,1,65.25,91.33Z"/><path class="cls-3" d="M40.87,93.69a11.21,11.21,0,0,1-8.47-3.78,3.26,3.26,0,1,1,4.9-4.29,4.87,4.87,0,0,0,7.13,0,3.26,3.26,0,1,1,4.9,4.29,11.21,11.21,0,0,1-8.47,3.78Z"/><path class="cls-1" d="M135.94,152.47a2.94,2.94,0,0,1-.53,0,3.26,3.26,0,0,1-2.69-3.74,39.69,39.69,0,0,0-5.64-28,3.26,3.26,0,0,1,5.23-3.89,45.51,45.51,0,0,1,6.84,32.92A3.26,3.26,0,0,1,135.94,152.47Z"/><path class="cls-2" d="M204.81,152.47a2.92,2.92,0,0,1-.53,0,3.26,3.26,0,0,1-2.69-3.74,39.32,39.32,0,0,0-5.63-28,3.26,3.26,0,1,1,5.22-3.89A45.54,45.54,0,0,1,208,149.74a3.26,3.26,0,0,1-3.21,2.74Z"/><path class="cls-2" d="M355.19,137.24H317.53L312.87,116H288.12l-4.44,21.23H258.21l25.39-99.72h44.15ZM300.81,53l-9.66,46.48h20.17L303,53Z"/><path class="cls-2" d="M367.88,37.52h30.54l37.94,50.07V37.52h24.12v99.72H429.17l-37.38-53v53H367.88V37.52Z"/><path class="cls-2" d="M495.82,137.24V60.51H473.25v-23h77.22v23H527.42v76.73h-31.6Z"/><path class="cls-1" d="M563.31,37.52h31.6V76.31h29.34V37.52h31.6v99.72h-31.6V96.62H594.91v40.62h-31.6V37.52Z"/><path class="cls-1" d="M680,37.52h70V56H711.56V77.09h33.85V95.14H711.56v21.79h38.37v20.31H680V37.52Z"/><path class="cls-1" d="M772.92,37.52h31.6v79.41h33.85v20.31H772.92V37.52Z"/><path class="cls-1" d="M854,37.52h38.51a110.71,110.71,0,0,1,17.6,1.23,61.43,61.43,0,0,1,13.15,3.49,33.45,33.45,0,0,1,9.28,5.43,27.72,27.72,0,0,1,5.92,6.95,26.73,26.73,0,0,1,3.14,8.07,42.46,42.46,0,0,1,.92,8.89,34.81,34.81,0,0,1-.88,7.76,25.74,25.74,0,0,1-3,7.41,26.9,26.9,0,0,1-5.54,6.56,33.56,33.56,0,0,1-8.5,5.29,52.55,52.55,0,0,1-11.92,3.53,87.94,87.94,0,0,1-15.83,1.27c-.85,0-1.91,0-3.17,0s-2.52-.08-3.74-.18l-4.37-.28v34.34H854V37.52Zm31.6,50.07h7.27a25.58,25.58,0,0,0,8.53-1.23A14.8,14.8,0,0,0,907,83a12.19,12.19,0,0,0,3-5,20.41,20.41,0,0,0,.92-6.21,24.42,24.42,0,0,0-1.34-8.74,13.53,13.53,0,0,0-3.77-5.54,14,14,0,0,0-5.75-2.93,28.91,28.91,0,0,0-7.19-.85h-7.27V87.59Z"/></g></g></svg>