<?xml version="1.0" encoding="utf-8"?>
<!-- Generator: Adobe Illustrator 21.0.2, SVG Export Plug-In . SVG Version: 6.00 Build 0)  -->
<svg version="1.1" id="Layer_1" xmlns="http://www.w3.org/2000/svg" xmlns:xlink="http://www.w3.org/1999/xlink" x="0px" y="0px"
	 viewBox="0 0 942.5 152.5" style="enable-background:new 0 0 942.5 152.5;" xml:space="preserve">
<style type="text/css">
	.st0{fill:#FF5E6B;}
	.st1{fill:#E63E4C;}
	.st2{fill:#3B484A;}
	.st3{fill:#FFFFFF;}
</style>
<title>Asset 1</title>
<g id="Layer_2">
	<g id="Layer_1-2">
		<path class="st0" d="M34.8,52c-1.8,0-3.2-1.4-3.3-3.2c-0.3-4.7-1.6-9.2-3.8-13.3c-4.9-9.6-13.5-16.7-25.6-21.1
			c-1.7-0.6-2.7-2.4-2.1-4.1s2.4-2.7,4.1-2.1c0.1,0,0.1,0,0.2,0.1C21.6,14.4,29.9,25,33.8,32.8c2.6,4.9,4,10.4,4.3,15.9
			C38.1,50.5,36.7,51.9,34.8,52L34.8,52z"/>
		<path class="st0" d="M77.4,51.6c-0.3,0-0.6,0-0.9-0.1c-1.7-0.5-2.7-2.3-2.2-4c1.1-4.5,1.2-9.2,0.3-13.8c-1.8-10.6-8-20-18.3-27.7
			c-1.4-1.1-1.7-3.1-0.6-4.6s3.1-1.7,4.6-0.6c14.6,11.1,19.4,23.6,20.8,32.2c1,5.5,0.8,11.1-0.6,16.5C80.1,50.7,78.9,51.6,77.4,51.6
			L77.4,51.6z"/>
		<path class="st1" d="M174.6,152.5c-1.6,0-3-1.2-3.2-2.7c-2-11.4,0.4-23.2,6.8-32.9c1.1-1.4,3.2-1.7,4.6-0.6c1.4,1.1,1.7,3,0.7,4.4
			c-5.3,8.3-7.3,18.3-5.6,28c0.3,1.8-0.9,3.4-2.7,3.7C175,152.5,174.8,152.5,174.6,152.5z"/>
		<path class="st0" d="M105.7,152.5c-1.6,0-3-1.2-3.2-2.7c-2-11.4,0.4-23.2,6.8-32.9c1.1-1.4,3.2-1.7,4.6-0.6c1.4,1.1,1.7,3,0.7,4.4
			c-5.3,8.3-7.3,18.3-5.6,28c0.3,1.8-0.9,3.4-2.7,3.7c0,0,0,0,0,0C106.1,152.5,105.9,152.5,105.7,152.5z"/>
		<ellipse class="st0" cx="180.2" cy="95.8" rx="36" ry="33.8"/>
		<ellipse class="st1" cx="130.3" cy="95.8" rx="36" ry="33.8"/>
		<path class="st1" d="M74.6,33.6c0.9,4.6,0.8,9.3-0.3,13.8c-0.5,1.7,0.5,3.5,2.2,4c0.3,0.1,0.6,0.1,0.9,0.1c1.4,0,2.7-0.9,3.1-2.3
			c1.4-5.4,1.5-11,0.6-16.5c-0.1-0.3-0.1-0.7-0.2-1c-2.4-1-4.8-1.9-7.3-2.6C74,30.6,74.3,32.1,74.6,33.6L74.6,33.6z"/>
		<path class="st1" d="M27.8,35.4c2.2,4.1,3.5,8.7,3.8,13.3c0,1.8,1.5,3.2,3.3,3.2l0,0c1.8,0,3.2-1.5,3.2-3.3
			c-0.3-5.5-1.8-11-4.3-15.9c-0.4-0.9-0.9-1.7-1.4-2.6c-2.1,0.7-4.1,1.5-6.1,2.4C26.8,33.5,27.3,34.4,27.8,35.4L27.8,35.4z"/>
		<ellipse class="st0" cx="54.3" cy="87.9" rx="54" ry="50.6"/>
		<path class="st1" d="M58.7,129.9c-29.8,0-54-22.7-54-50.6c0-5.8,1.1-11.6,3.1-17C3,69.9,0.4,78.8,0.4,87.9c0,28,24.2,50.6,54,50.6
			c23.4,0,43.4-14,50.8-33.6C95.8,119.9,78.5,129.9,58.7,129.9L58.7,129.9z"/>
		<path class="st2" d="M16.5,91.3c-1.8,0-3.3-1.5-3.3-3.3l0,0v-4.4c0-1.8,1.5-3.3,3.3-3.3s3.3,1.5,3.3,3.3l0,0v4.4
			C19.7,89.9,18.3,91.3,16.5,91.3z"/>
		<path class="st2" d="M65.3,91.3c-1.8,0-3.3-1.5-3.3-3.3v-4.4c0-1.8,1.5-3.3,3.3-3.3c1.8,0,3.3,1.5,3.3,3.3v4.4
			C68.5,89.9,67.1,91.3,65.3,91.3C65.3,91.3,65.3,91.3,65.3,91.3z"/>
		<path class="st2" d="M40.9,93.7c-3.2,0-6.3-1.4-8.5-3.8c-1.2-1.3-1.2-3.4,0.1-4.6c1.3-1.2,3.4-1.2,4.6,0.1
			c0.1,0.1,0.1,0.2,0.2,0.2c1.8,2,4.9,2.1,6.9,0.2c0.1-0.1,0.2-0.2,0.2-0.2c1.1-1.4,3.2-1.6,4.6-0.5c1.4,1.1,1.6,3.2,0.5,4.6
			c-0.1,0.1-0.1,0.2-0.2,0.2C47.2,92.3,44.1,93.7,40.9,93.7L40.9,93.7z"/>
		<path class="st0" d="M135.9,152.5c-0.2,0-0.4,0-0.5,0c-1.8-0.3-3-2-2.7-3.7c1.7-9.7-0.4-19.7-5.6-28c-1-1.5-0.7-3.5,0.8-4.5
			c1.4-1,3.4-0.7,4.4,0.7c6.4,9.7,8.8,21.5,6.8,32.9C138.9,151.3,137.5,152.5,135.9,152.5z"/>
		<path class="st1" d="M204.8,152.5c-0.2,0-0.4,0-0.5,0c-1.8-0.3-3-2-2.7-3.7c1.7-9.7-0.3-19.7-5.6-28c-1.2-1.4-1-3.4,0.4-4.6
			c1.4-1.2,3.4-1,4.6,0.4c0.1,0.1,0.1,0.2,0.2,0.3c6.4,9.7,8.8,21.5,6.8,32.9C207.7,151.3,206.4,152.5,204.8,152.5L204.8,152.5z"/>
		<path class="st3" d="M355.2,137.2h-37.7l-4.7-21.2h-24.8l-4.4,21.2h-25.5l25.4-99.7h44.1L355.2,137.2z M300.8,53l-9.7,46.5h20.2
			L303,53H300.8z"/>
		<path class="st3" d="M367.9,37.5h30.5l37.9,50.1V37.5h24.1v99.7h-31.3l-37.4-53v53h-23.9V37.5z"/>
		<path class="st3" d="M495.8,137.2V60.5h-22.6v-23h77.2v23h-23v76.7H495.8L495.8,137.2z"/>
		<path class="st3" d="M563.3,37.5h31.6v38.8h29.3V37.5h31.6v99.7h-31.6V96.6h-29.3v40.6h-31.6V37.5z"/>
		<path class="st3" d="M680,37.5h70V56h-38.4v21.1h33.8v18.1h-33.8v21.8h38.4v20.3H680V37.5z"/>
		<path class="st3" d="M772.9,37.5h31.6v79.4h33.8v20.3h-65.4V37.5z"/>
		<path class="st3" d="M854,37.5h38.5c5.9-0.1,11.8,0.4,17.6,1.2c4.5,0.7,8.9,1.8,13.2,3.5c3.4,1.3,6.5,3.1,9.3,5.4
			c2.3,2,4.3,4.3,5.9,7c1.5,2.5,2.5,5.2,3.1,8.1c0.6,2.9,0.9,5.9,0.9,8.9c0,2.6-0.3,5.2-0.9,7.8c-0.6,2.6-1.6,5.1-3,7.4
			c-1.5,2.5-3.4,4.7-5.5,6.6c-2.6,2.2-5.4,4-8.5,5.3c-3.8,1.6-7.8,2.8-11.9,3.5c-5.2,0.9-10.5,1.3-15.8,1.3c-0.8,0-1.9,0-3.2,0
			s-2.5-0.1-3.7-0.2l-4.4-0.3v34.3H854V37.5z M885.6,87.6h7.3c2.9,0.1,5.8-0.3,8.5-1.2c2.1-0.7,4-1.8,5.6-3.4c1.4-1.4,2.4-3.1,3-5
			c0.6-2,0.9-4.1,0.9-6.2c0.1-3-0.4-5.9-1.3-8.7c-0.8-2.1-2.1-4-3.8-5.5c-1.7-1.4-3.6-2.4-5.8-2.9c-2.4-0.6-4.8-0.9-7.2-0.8h-7.3
			L885.6,87.6L885.6,87.6z"/>
	</g>
</g>
</svg>
